<?xml version="1.0" standalone="no"?>
<!DOCTYPE svg PUBLIC "-//W3C//DTD SVG 20010904//EN"
 "http://www.w3.org/TR/2001/REC-SVG-20010904/DTD/svg10.dtd">
<svg version="1.0" xmlns="http://www.w3.org/2000/svg"
 width="128.000000pt" height="128.000000pt" viewBox="0 0 128.000000 128.000000"
 preserveAspectRatio="xMidYMid meet">

<g transform="translate(0.000000,128.000000) scale(0.100000,-0.100000)"
fill="#000000" stroke="none">
<path d="M749 1023 c-125 -127 -147 -155 -159 -196 -7 -26 -10 -63 -7 -82 6
-35 6 -35 -207 -220 -133 -115 -218 -196 -226 -215 -45 -109 58 -225 170 -191
34 10 66 42 226 226 l186 215 57 0 c89 0 138 30 285 179 70 71 126 136 124
143 -12 36 -44 15 -176 -115 -150 -147 -179 -164 -261 -153 l-48 6 -179 -207
c-226 -261 -206 -243 -254 -243 -66 0 -109 65 -79 119 8 14 105 104 216 201
256 222 234 197 224 243 -18 75 -3 99 149 252 100 100 141 148 138 161 -8 41
-38 20 -179 -123z"/>
<path d="M138 1128 c-88 -51 -74 -149 48 -337 83 -127 166 -230 187 -231 38
-1 28 31 -36 112 -148 190 -223 339 -197 388 14 25 65 43 103 36 24 -5 62 -36
152 -126 116 -116 149 -137 162 -104 7 19 -214 246 -263 269 -46 21 -112 19
-156 -7z"/>
<path d="M866 961 c-84 -84 -117 -124 -113 -135 4 -9 12 -16 19 -16 7 0 67 54
132 119 84 84 117 124 113 135 -4 9 -12 16 -19 16 -7 0 -67 -54 -132 -119z"/>
<path d="M951 876 c-111 -111 -131 -146 -91 -154 23 -4 254 232 247 252 -13
33 -46 13 -156 -98z"/>
<path d="M872 538 c-7 -7 -12 -16 -12 -22 0 -5 49 -59 109 -120 59 -61 110
-118 113 -127 3 -8 0 -29 -7 -46 -15 -34 -60 -52 -92 -34 -10 5 -70 73 -133
150 -85 104 -120 140 -135 138 -11 -1 -20 -9 -20 -18 0 -24 224 -295 261 -315
62 -34 146 -2 174 67 25 59 7 95 -108 212 -118 120 -133 132 -150 115z"/>
</g>
</svg>
